# xmcd
#
# Track frame offsets: 
#        187
#        17772
#        35452
#        60832
#        122104
#        146124
#        171872
#        198749
#        236477
#
# Disc length: 3340 seconds
#
# Revision: 5
# Processed by: cddbd v1.5.1PL0 Copyright (c) Steve Scherf et al.
# Submitted via: ExactAudioCopy v0.95a5
#
DISCID=7a0d0a09
DTITLE=The Jimi Hendrix Experience - Live At The Fillmore East (Disk 2
DTITLE=)
DYEAR=1999
DGENRE=Blues
TTITLE0=Auld Lang Syne
TTITLE1=Who Knows
TTITLE2=Changes
TTITLE3=Machine Gun
TTITLE4=Stepping Stone
TTITLE5=Stop
TTITLE6=Earth Blues
TTITLE7=Burning Desire
TTITLE8=Wild Thing
EXTD=YEAR: 1999
EXTT0=
EXTT1=
EXTT2=
EXTT3=
EXTT4=
EXTT5=
EXTT6=
EXTT7=
EXTT8=
PLAYORDER=
